<?xml version="1.0" encoding="utf-8"?>
<!-- Generator: Adobe Illustrator 16.0.0, SVG Export Plug-In . SVG Version: 6.00 Build 0)  -->
<!DOCTYPE svg PUBLIC "-//W3C//DTD SVG 1.1//EN" "http://www.w3.org/Graphics/SVG/1.1/DTD/svg11.dtd">
<svg version="1.1" id="Capa_1" xmlns="http://www.w3.org/2000/svg" xmlns:xlink="http://www.w3.org/1999/xlink" x="0px" y="0px"
	 width="800px" height="800px" viewBox="0 0 800 800" enable-background="new 0 0 800 800" xml:space="preserve">
<g>
	<path fill="#ED1F34" d="M76.419,659.064v-1c0-6.563-5.34-11.903-11.903-11.903H24.807V152.508l489.999,493.653H116.129
		c-6.563,0-11.903,5.34-11.903,11.903v1H76.419z"/>
	<path fill="#ED1F34" d="M116.129,645.161h396.275L25.807,154.935v490.226h38.709c7.126,0,12.903,5.775,12.903,12.903h25.806
		C103.226,650.937,109.003,645.161,116.129,645.161z"/>
	<polygon fill="#ED1F34" points="285.194,153.839 775.193,153.839 775.193,647.492 	"/>
	<polygon fill="#ED1F34" points="774.193,645.065 774.193,154.839 287.596,154.839 	"/>
	<polygon fill="#FFFFFF" points="552.723,645.161 66.027,154.839 25.807,154.839 25.807,154.935 512.404,645.161 	"/>
	<polygon fill="#FFFFFF" points="247.276,154.839 733.975,645.161 774.193,645.161 774.193,645.065 287.596,154.839 	"/>
	<polygon fill="#333333" points="588.668,646.161 99.983,153.839 211.333,153.839 700.015,646.161 	"/>
	<polygon fill="#333333" points="697.613,645.161 210.916,154.839 102.385,154.839 589.084,645.161 	"/>
	<path d="M787.097,129.032H12.903C5.777,129.032,0,134.808,0,141.936v516.129c0,7.128,5.777,12.903,12.903,12.903h51.613
		c7.126,0,12.903-5.775,12.903-12.903s-5.777-12.903-12.903-12.903H25.807V154.935v-0.096h40.22l486.696,490.322h-40.318H116.129
		c-7.126,0-12.903,5.775-12.903,12.903s5.777,12.903,12.903,12.903h670.968c7.128,0,12.903-5.775,12.903-12.903V141.936
		C800,134.808,794.225,129.032,787.097,129.032z M774.193,645.065v0.096h-40.219L247.276,154.839h40.318h486.6V645.065z
		 M210.916,154.839l486.697,490.322H589.084L102.385,154.839H210.916z"/>
</g>
</svg>
